<svg width="72" height="72" viewBox="0 0 72 72" fill="none" xmlns="http://www.w3.org/2000/svg">
<path d="M72 36C72 55.8823 55.8823 72 36 72C16.1177 72 0 55.8823 0 36C0 16.1177 16.1177 0 36 0C55.8823 0 72 16.1177 72 36Z" fill="#F0534D"/>
<path d="M43.1094 45.0119L40.4719 58H37.9286C37.4472 58 37.039 57.826 36.7041 57.478C36.3692 57.13 36.2017 56.6797 36.2017 56.127C36.2017 56.0451 36.2017 55.9735 36.2017 55.9121C36.2226 55.8302 36.2436 55.7381 36.2645 55.6357L38.4938 45.0119H30.7383L28.509 55.9121C28.3416 56.6695 28.0171 57.2119 27.5357 57.5394C27.0752 57.8465 26.5414 58 25.9343 58H23.4539L26.1227 45.0119H21.5385C21.0571 45.0119 20.6803 44.8993 20.4082 44.6741C20.1361 44.4285 20 44.0191 20 43.4459C20 43.3436 20 43.231 20 43.1082C20.0209 42.9853 20.0419 42.8625 20.0628 42.7397L20.314 40.9895H26.7193L28.7602 30.9798H21.4757L21.8839 28.7076C21.9886 28.114 22.2293 27.6739 22.6061 27.3873C22.9829 27.1007 23.5794 26.9574 24.3958 26.9574H29.3568L31.6175 15.9651C31.7431 15.351 32.0257 14.87 32.4653 14.522C32.9258 14.174 33.47 14 34.098 14H36.6099L33.9724 26.9574H41.7279L44.3654 14H46.8459C47.3692 14 47.7983 14.1535 48.1332 14.4606C48.4891 14.7676 48.667 15.1668 48.667 15.6581C48.667 15.8218 48.6565 15.9549 48.6356 16.0572L46.3435 26.9574H53L52.5918 29.2603C52.4872 29.8539 52.236 30.294 51.8383 30.5806C51.4615 30.8467 50.8754 30.9798 50.0799 30.9798H45.7469L43.706 40.9895H49.3264C49.8287 40.9895 50.216 41.1124 50.4881 41.358C50.7602 41.5832 50.8963 41.9926 50.8963 42.5862C50.8963 42.6885 50.8858 42.8011 50.8649 42.9239C50.8649 43.0263 50.8544 43.1389 50.8335 43.2617L50.5509 45.0119H43.1094ZM31.3349 40.9895H39.0904L41.1313 30.9798H33.3758L31.3349 40.9895Z" fill="white"/>
</svg>
