<svg width="568" height="69" viewBox="0 0 568 69" fill="none" xmlns="http://www.w3.org/2000/svg">
<path d="M548.1 68C552.321 68 554.622 67.2015 554.622 65.7003C554.622 63.6562 550.401 62.2508 541.927 61.628C528.088 60.6538 513.869 60.031 499.65 59.6796C461.23 59.0568 402.846 58.7055 324.023 58.7055C287.126 58.8013 259.847 59.0568 241.787 59.6796C233.324 59.6796 229.092 60.3877 229.092 61.8037C229.092 62.4265 230.679 63.225 233.694 64.1992C239.684 66.0273 245.924 66.8844 252.182 66.7384C254.483 66.7384 257.165 66.6425 259.863 66.4669C282.08 65.6684 314.438 65.2372 356.317 65.2372C440.108 65.2372 501.999 66.1209 541.99 67.8882C542.371 67.8882 543.148 67.8882 544.291 67.984C545.434 68.0799 546.608 68.0639 548.147 68.0639" fill="white"/>
<path d="M568 13.5905L559.605 15.2833L555.177 36.124C553.94 38.1203 550.893 40.915 548.338 40.915C547.76 40.8391 547.233 40.5438 546.864 40.0896C546.495 39.6354 546.313 39.0566 546.354 38.4716C546.427 37.0181 546.634 35.5746 546.973 34.1597L551.321 13.5585L542.736 15.1555L538.451 35.6928C538.058 37.3518 537.85 39.0499 537.832 40.7553C537.832 44.7638 540.689 47.271 545.608 47.271C549.07 47.1557 552.359 45.7232 554.812 43.2626C554.97 44.7821 555.481 46.2429 556.304 47.5266L563.525 44.636C562.586 42.6059 562.346 40.3189 562.842 38.1362L568 13.5905ZM523.946 24.6736C523.946 30.9338 521.09 41.0109 515.742 41.0109C513.377 41.0109 511.822 39.6374 511.822 36.5552C511.822 31.6844 514.504 19.9145 520.09 19.9145C522.582 19.9145 523.946 20.9685 523.946 24.7055V24.6736ZM532.913 24.7055C532.913 17.6947 528.501 13.7502 521.344 13.7502C510.394 13.7502 502.983 23.6994 502.983 35.7727C502.983 43.1029 507.093 47.1113 514.314 47.1113C527.009 47.1113 532.913 35.9324 532.913 24.7534V24.7055ZM504.855 14.4209H495.857L487.923 29.6881C486.05 33.2654 484.066 38.1522 483.622 39.2701C483.622 38.3279 483.495 34.3833 483.368 32.6426L481.781 13.9099L473.196 14.9159L476.068 37.4495C476.433 40.2123 476.75 44.093 476.877 46.4725H479.179C477.179 49.8582 476.195 51.2635 473.64 52.8605C471.881 53.8017 469.993 54.4745 468.038 54.8568L469.72 60.4942C472.679 60.1474 475.525 59.1437 478.052 57.5557C480.734 55.8629 482.908 53.1639 486.399 46.9676L504.855 14.4209ZM458.834 14.4209C457.96 13.9245 456.964 13.6865 455.961 13.7342C452.788 13.7342 449.868 15.7304 447.075 18.5252C447.25 16.7598 446.994 14.978 446.329 13.3349L438.727 16.3373C439.438 19.2649 439.394 22.3266 438.6 25.2325L434.125 46.3927H442.457L446.868 25.4242C449.487 21.9747 451.296 21.0324 452.915 21.0324C453.76 21.0122 454.595 21.2277 455.327 21.6553L458.834 14.4209ZM421.445 24.8173C421.445 31.0775 418.573 41.1546 413.225 41.1546C410.86 41.1546 409.305 39.7812 409.305 36.699C409.305 31.8281 411.987 20.0583 417.589 20.0583C420.081 20.0583 421.445 21.1123 421.445 24.8492V24.8173ZM430.396 24.8492C430.396 17.8384 425.984 13.8939 418.827 13.8939C407.877 13.8939 400.482 23.8432 400.482 35.9164C400.482 43.2466 404.576 47.2551 411.797 47.2551C424.492 47.2551 430.396 36.0761 430.396 24.8971V24.8492ZM407.131 2.21986C404.996 0.90663 402.54 0.21557 400.038 0.223621C393.515 0.223621 388.929 3.28982 387.532 10.1729C387.217 11.6192 387.01 13.0872 386.913 14.5646H383.993L382.74 20.3138H385.914L380.693 46.6163C379.895 50.0919 378.26 53.3167 375.932 56.0066L381.042 60.6379C385.064 56.9026 387.837 52.0036 388.977 46.6163L394.086 20.3138H399.752L403.1 14.5646H395.023L395.959 9.99722C396.113 8.97054 396.632 8.03513 397.421 7.36526C398.209 6.69538 399.212 6.33672 400.244 6.35607C401.426 6.38378 402.582 6.70762 403.608 7.29829L407.131 2.21986ZM355 23.3321C355 26.5261 350.826 27.7718 347.224 27.7718C346.427 27.751 345.634 27.6439 344.859 27.4523C346.097 21.8788 348.462 20.0103 351.636 20.0103C352.087 19.9422 352.549 19.9806 352.984 20.1224C353.418 20.2642 353.814 20.5056 354.14 20.8277C354.466 21.1497 354.714 21.5435 354.863 21.9781C355.012 22.4127 355.059 22.8762 355 23.3321ZM363.395 22.6294C363.395 16.3692 358.856 13.8779 352.572 13.8779C350.556 13.8005 348.545 14.1372 346.662 14.8675C344.78 15.5979 343.065 16.7066 341.622 18.1259C337.083 22.8392 334.52 29.1295 334.465 35.6928C334.465 43.4542 338.956 47.4627 346.542 47.4627C351.208 47.4228 355.739 45.8841 359.475 43.0709L357.365 37.8169C354.833 39.8314 351.747 41.0134 348.525 41.2025C345.05 41.2025 343.177 39.7013 343.177 36.0602C343.22 35.096 343.326 34.1357 343.495 33.1855C344.737 33.485 346.01 33.6298 347.287 33.6168C357.856 33.6168 363.395 28.682 363.395 22.5975V22.6294ZM321.293 21.8469L318.119 36.3955C317.183 38.1522 314.136 40.6435 312.279 40.6435C310.105 40.6435 309.105 39.0465 309.105 36.0123C309.169 31.4731 310.506 27.0444 312.962 23.2363C313.439 22.5029 314.081 21.8935 314.837 21.4577C315.593 21.022 316.44 20.7723 317.31 20.729C318.768 20.6076 320.216 21.0535 321.357 21.9747L321.293 21.8469ZM334.052 1.5012L326.022 0.19165L323.721 11.2109C323.356 13.0794 323.166 14.4049 323.102 14.9C321.358 14.3139 319.53 14.0173 317.691 14.0216C313.837 14.1152 310.165 15.6861 307.423 18.4134C302.933 23.1431 300.436 29.4387 300.457 35.9803C300.457 43.4382 303.631 47.2551 310.232 47.2551C311.74 47.2124 313.223 46.8571 314.589 46.2114C315.954 45.5656 317.172 44.6433 318.167 43.5022C318.157 44.4908 318.263 45.4772 318.484 46.4406H325.641C325.49 45.8682 325.426 45.2758 325.451 44.6839C325.642 41.3283 326.141 37.9976 326.943 34.7346L334.052 1.5012ZM287.396 20.8568L284.095 35.9324C283.222 38.248 280.556 40.947 277.938 40.947C276.129 40.947 275.383 39.7013 275.383 36.8108C275.383 32.5628 276.7 26.2386 279.303 23.1085C279.943 22.1621 280.824 21.4064 281.855 20.9204C282.885 20.4343 284.026 20.2359 285.158 20.3458C285.932 20.3512 286.696 20.5255 287.396 20.8568ZM296.918 16.0658C293.616 14.49 289.985 13.7395 286.333 13.8779C283.985 13.7582 281.64 14.1419 279.451 15.0037C277.262 15.8655 275.28 17.1856 273.637 18.8765C269.828 22.6933 266.909 29.5284 266.909 37.2259C266.909 43.8535 269.892 47.4308 275.684 47.4308C277.284 47.445 278.868 47.1114 280.328 46.4527C281.788 45.7939 283.089 44.8256 284.143 43.6139C284.419 45.1938 285.288 46.6063 286.571 47.5585L293.474 42.3523C292.994 41.8318 292.621 41.2211 292.376 40.5552C292.131 39.8893 292.018 39.1812 292.046 38.4716C292.043 37.6714 292.128 36.8733 292.3 36.0921L294.839 23.9549C295.382 21.289 296.07 18.6553 296.902 16.0658H296.918ZM262.116 20.4416C262.116 15.6506 259.26 13.814 255.768 13.814C253.823 13.8665 251.908 14.3185 250.143 15.1424C248.377 15.9663 246.797 17.1446 245.501 18.605C245.183 15.2832 242.882 13.814 239.645 13.814C237.71 13.8751 235.808 14.3313 234.054 15.1549C232.3 15.9785 230.73 17.1522 229.441 18.605C229.526 16.8584 229.272 15.112 228.695 13.4627L220.982 16.5289C221.356 17.9396 221.521 19.3977 221.474 20.8568C221.481 22.1382 221.359 23.417 221.109 24.6736L216.444 46.5844H224.585L229.012 25.6797C231.25 22.5975 233.551 20.8887 235.725 20.8887C237.153 20.8887 237.725 21.3199 237.725 22.6294C237.696 23.7075 237.547 24.7789 237.28 25.8234L232.869 46.6802H240.803L245.215 25.7755C247.088 22.8211 249.627 20.9845 251.817 20.9845C253.308 20.9845 253.864 21.4157 253.864 22.7892C253.829 23.7206 253.702 24.6462 253.483 25.5519L249.008 46.7121H257.101L261.703 24.8013C262.014 23.4226 262.178 22.0148 262.195 20.6012L262.116 20.4416ZM198.717 36.5712C198.776 34.6078 198.16 32.6842 196.972 31.1255C195.845 29.6882 194.544 28.4904 190.624 27.4843L186.768 26.4941C183.848 25.7436 182.784 24.8971 182.784 23.3002C182.784 21.4157 184.371 20.1062 186.831 20.1062C189.594 20.2186 192.286 21.014 194.671 22.4218L197.4 16.7844C193.915 14.8466 190.004 13.8146 186.022 13.7821C178.611 13.7821 173.707 17.9822 173.707 24.2424C173.686 26.3014 174.314 28.314 175.5 29.9916C177.089 31.625 179.129 32.7381 181.356 33.1855L185.086 33.8723C188.45 34.4951 190.005 35.629 190.005 37.8169C189.969 38.3376 189.83 38.846 189.597 39.3122C189.364 39.7784 189.04 40.1931 188.646 40.5321C188.251 40.8711 187.794 41.1276 187.299 41.2866C186.805 41.4455 186.285 41.5038 185.768 41.458C182.004 41.1249 178.376 39.8752 175.199 37.8169L172.215 43.9493C176.149 46.2025 180.563 47.473 185.086 47.6543C193.242 47.6543 198.717 43.1348 198.717 36.4754V36.5712ZM167.296 5.73322C167.306 5.05811 167.184 4.38759 166.935 3.76042C166.687 3.13325 166.317 2.56186 165.848 2.07926C165.379 1.59665 164.819 1.21241 164.201 0.948721C163.584 0.685037 162.92 0.547128 162.249 0.542991C160.874 0.538714 159.554 1.08214 158.575 2.0546C157.597 3.02706 157.041 4.34953 157.028 5.73322C156.99 6.43583 157.093 7.13906 157.334 7.79984C157.574 8.46062 157.946 9.06506 158.427 9.57628C158.907 10.0875 159.486 10.4947 160.129 10.773C160.771 11.0513 161.463 11.1949 162.162 11.1949C162.861 11.1949 163.553 11.0513 164.196 10.773C164.838 10.4947 165.417 10.0875 165.897 9.57628C166.378 9.06506 166.75 8.46062 166.99 7.79984C167.231 7.13906 167.335 6.43583 167.296 5.73322ZM166.296 46.6163V13.5905L157.965 14.9V46.3927L166.296 46.6163ZM136.001 39.6055H123.56C121.512 39.6055 118.402 39.7333 117.021 39.9089C117.859 39.2819 118.649 38.5933 119.386 37.8488C122.131 35.2776 124.924 32.4669 126.797 30.4068C131.209 25.52 134.081 20.6971 134.081 16.1936C134.081 9.11888 129.32 4.23204 121.941 4.23204C116.109 4.14632 110.477 6.37191 106.262 10.4284L110.737 15.7464C114.228 12.8718 116.847 11.6102 119.513 11.6102C122.179 11.6102 124.686 12.9357 124.686 17.2476C124.686 20.1381 123.433 23.955 117.894 30.0235C115.038 33.2175 109.96 38.28 107.516 40.6595V46.5524H134.034L136.001 39.6055ZM100.232 33.8403C100.215 31.6453 99.4802 29.5171 98.1404 27.7849C96.8007 26.0527 94.9309 24.8132 92.8205 24.2584C94.713 23.6036 96.3489 22.3587 97.4904 20.7045C98.6319 19.0503 99.2197 17.073 99.1683 15.0597C99.1683 8.79949 93.5029 4.1682 85.7268 4.1682C80.3931 4.24929 75.2343 6.09573 71.0476 9.42227L75.4117 14.7403C77.977 12.5239 81.2351 11.2859 84.616 11.2429C88.2183 11.2429 89.9005 13.2391 89.9005 15.938C89.9005 19.2598 87.5994 20.8887 82.9973 20.8887C81.5597 20.8987 80.1231 20.8133 78.6967 20.6332V27.644C79.7599 27.644 80.8232 27.644 81.8706 27.644C83.8318 27.5038 85.801 27.759 87.6629 28.3946C88.5236 28.8492 89.2376 29.5414 89.721 30.39C90.2045 31.2386 90.4374 32.2084 90.3925 33.1855C90.3925 38.8868 84.489 42.7675 75.8401 42.7675C74.241 42.8138 72.6423 42.6636 71.0793 42.3204L73.0789 48.1494C74.786 48.4022 76.5114 48.509 78.2365 48.4688C91.1066 48.4688 100.136 42.4481 100.136 33.8084L100.232 33.8403ZM56.2096 25.9831C56.2096 35.07 54.9083 41.3302 50.6712 41.3302C47.4973 41.3302 45.1962 38.3119 45.1962 25.6158C45.1962 16.5289 46.5134 10.3326 50.7347 10.3326C53.9086 10.3326 56.2096 13.2711 56.2096 25.9831ZM65.4774 25.7276C65.4774 12.6482 59.8279 4.20012 50.7347 4.20012C41.9589 4.20012 35.9285 12.7121 35.9285 25.9192C35.9285 39.1264 41.5939 47.4627 50.6712 47.4627C59.447 47.4627 65.4774 38.8868 65.4774 25.7276ZM29.8346 39.5735H17.3929C15.3458 39.5735 12.2354 39.7013 10.8547 39.877C11.6924 39.25 12.4827 38.5614 13.2192 37.8169C15.9647 35.2457 18.7577 32.435 20.6303 30.3749C25.042 25.4881 27.9144 20.6651 27.9144 16.1616C27.9144 9.08691 23.1536 4.20012 15.7743 4.20012C9.94229 4.11439 4.31072 6.33999 0.0952148 10.3965L4.57042 15.7144C8.0617 12.8398 10.6802 11.5782 13.3462 11.5782C16.0123 11.5782 18.5196 12.9037 18.5196 17.2156C18.5196 20.1062 17.266 23.923 11.7275 29.9916C8.87101 33.1855 3.79281 38.248 1.34892 40.6275V46.5205H28.0255L29.8346 39.5735Z" fill="white"/>
</svg>
